<svg class="animated" id="freepik_stories-blood-test" xmlns="http://www.w3.org/2000/svg" viewBox="0 0 500 500" version="1.1" xmlns:xlink="http://www.w3.org/1999/xlink" xmlns:svgjs="http://svgjs.com/svgjs"><style>svg#freepik_stories-blood-test:not(.animated) .animable {opacity: 0;}svg#freepik_stories-blood-test.animated #freepik--sample-tube--inject-3 {animation: 3s Infinite  linear floating;animation-delay: 0s;}svg#freepik_stories-blood-test.animated #freepik--Test--inject-3 {animation: 3s Infinite  linear wind;animation-delay: 0s;}            @keyframes floating {                0% {                    opacity: 1;                    transform: translateY(0px);                }                50% {                    transform: translateY(-10px);                }                100% {                    opacity: 1;                    transform: translateY(0px);                }            }                    @keyframes wind {                0% {                    transform: rotate( 0deg );                }                25% {                    transform: rotate( 1deg );                }                75% {                    transform: rotate( -1deg );                }            }        </style><g id="freepik--background-complete--inject-3" class="animable" style="transform-origin: 250px 226.03px;"><rect y="382.4" width="500" height="0.25" style="fill: rgb(235, 235, 235); transform-origin: 250px 382.525px;" id="el2fqb88nsh5l" class="animable"></rect><rect x="384" y="396.81" width="59.89" height="0.25" style="fill: rgb(235, 235, 235); transform-origin: 413.945px 396.935px;" id="elqlcqjdkkxvn" class="animable"></rect><rect x="286.33" y="391.4" width="52.57" height="0.25" style="fill: rgb(235, 235, 235); transform-origin: 312.615px 391.525px;" id="elvw1es6jyhh9" class="animable"></rect><rect x="362.24" y="396.69" width="16.35" height="0.25" style="fill: rgb(235, 235, 235); transform-origin: 370.415px 396.815px;" id="elyatl3wuwfhg" class="animable"></rect><rect x="56.11" y="391.28" width="48.67" height="0.25" style="fill: rgb(235, 235, 235); transform-origin: 80.445px 391.405px;" id="ela6od1us79xh" class="animable"></rect><rect x="109.22" y="391.28" width="10.43" height="0.25" style="fill: rgb(235, 235, 235); transform-origin: 114.435px 391.405px;" id="eljcoosypuxe8" class="animable"></rect><rect x="168.68" y="393.43" width="33.65" height="0.25" style="fill: rgb(235, 235, 235); transform-origin: 185.505px 393.555px;" id="elmwvbtai9i4g" class="animable"></rect><path d="M237,337.8H43.91a5.71,5.71,0,0,1-5.7-5.71V60.66A5.71,5.71,0,0,1,43.91,55H237a5.71,5.71,0,0,1,5.71,5.71V332.09A5.71,5.71,0,0,1,237,337.8ZM43.91,55.2a5.46,5.46,0,0,0-5.45,5.46V332.09a5.46,5.46,0,0,0,5.45,5.46H237a5.47,5.47,0,0,0,5.46-5.46V60.66A5.47,5.47,0,0,0,237,55.2Z" style="fill: rgb(235, 235, 235); transform-origin: 140.46px 196.4px;" id="elrg9vdbfd35d" class="animable"></path><path d="M453.31,337.8H260.21a5.72,5.72,0,0,1-5.71-5.71V60.66A5.72,5.72,0,0,1,260.21,55h193.1A5.71,5.71,0,0,1,459,60.66V332.09A5.71,5.71,0,0,1,453.31,337.8ZM260.21,55.2a5.47,5.47,0,0,0-5.46,5.46V332.09a5.47,5.47,0,0,0,5.46,5.46h193.1a5.47,5.47,0,0,0,5.46-5.46V60.66a5.47,5.47,0,0,0-5.46-5.46Z" style="fill: rgb(235, 235, 235); transform-origin: 356.75px 196.4px;" id="elxxeivfiepsn" class="animable"></path><rect x="46.89" y="282.3" width="406.22" height="7.02" style="fill: rgb(235, 235, 235); transform-origin: 250px 285.81px;" id="eltb7d766fccr" class="animable"></rect><g id="el8dki17h6tb8"><rect x="112.69" y="80.95" width="274.63" height="165.68" style="fill: rgb(240, 240, 240); transform-origin: 250.005px 163.79px; transform: rotate(180deg);" class="animable" id="el3uudagi011r"></rect></g><g id="el33p99xf2sa8"><rect x="174.58" y="33.9" width="150.84" height="259.79" style="fill: rgb(250, 250, 250); transform-origin: 250px 163.795px; transform: rotate(90deg);" class="animable" id="eld12310e1am7"></rect></g><polygon points="337.82 239.21 290.48 88.37 243.6 88.37 290.94 239.21 337.82 239.21" style="fill: rgb(255, 255, 255); transform-origin: 290.71px 163.79px;" id="el5ay44bhtwth" class="animable"></polygon><polygon points="276.41 239.21 229.07 88.37 210.79 88.37 258.13 239.21 276.41 239.21" style="fill: rgb(255, 255, 255); transform-origin: 243.6px 163.79px;" id="elc0dywwtji88" class="animable"></polygon><g id="elh0dyy91cde"><rect x="45.16" y="163.32" width="150.84" height="0.94" style="fill: rgb(230, 230, 230); transform-origin: 120.58px 163.79px; transform: rotate(90deg);" class="animable" id="elodr984obzxo"></rect></g><rect x="50.33" y="289.32" width="399.33" height="93.08" style="fill: rgb(245, 245, 245); transform-origin: 249.995px 335.86px;" id="elffnn9phu6gq" class="animable"></rect><polygon points="285.82 289.32 258.93 289.32 214.18 382.4 241.07 382.4 285.82 289.32" style="fill: rgb(250, 250, 250); transform-origin: 250px 335.86px;" id="elb4h0ni1g4d8" class="animable"></polygon><polygon points="409.08 289.32 382.19 289.32 337.44 382.4 364.33 382.4 409.08 289.32" style="fill: rgb(250, 250, 250); transform-origin: 373.26px 335.86px;" id="elx148iuh83s" class="animable"></polygon><polygon points="248.83 289.32 221.94 289.32 177.2 382.4 204.09 382.4 248.83 289.32" style="fill: rgb(250, 250, 250); transform-origin: 213.015px 335.86px;" id="elrva6szngmrh" class="animable"></polygon><path d="M87.42,276,79,266.25v-17.6a.63.63,0,0,0,.61-.63.64.64,0,0,0-.64-.64H70a.64.64,0,0,0-.64.64.63.63,0,0,0,.61.63v17.6L61.58,276a3.79,3.79,0,0,0,2.88,6.27H84.54A3.79,3.79,0,0,0,87.42,276Z" style="fill: rgb(245, 245, 245); transform-origin: 74.5px 264.825px;" id="eluibmfuxs8yh" class="animable"></path><path d="M301.86,276l-8.42-9.78v-37a.64.64,0,0,0,0-1.28h-8.93a.64.64,0,0,0,0,1.28v37L276,276a3.79,3.79,0,0,0,2.88,6.27H299A3.79,3.79,0,0,0,301.86,276Z" style="fill: rgb(245, 245, 245); transform-origin: 288.93px 255.105px;" id="el0511rw4anub7" class="animable"></path><polygon points="213.01 282.25 143.33 282.25 148.83 212.56 213.01 212.56 213.01 282.25" style="fill: rgb(224, 224, 224); transform-origin: 178.17px 247.405px;" id="el8r3nkm7buav" class="animable"></polygon><polygon points="243.68 263.56 174 263.56 167.68 212.56 237.36 212.56 243.68 263.56" style="fill: rgb(240, 240, 240); transform-origin: 205.68px 238.06px;" id="elyni4guie62n" class="animable"></polygon><polygon points="243.68 263.56 174 263.56 195.76 282.3 265.44 282.3 243.68 263.56" style="fill: rgb(240, 240, 240); transform-origin: 219.72px 272.93px;" id="el7guvztwo0r5" class="animable"></polygon><path d="M177.08,256.16,172.6,220a2.94,2.94,0,0,1,3-3.41h54.87a4,4,0,0,1,3.83,3.41l4.48,36.19a2.94,2.94,0,0,1-3,3.4H180.91A4,4,0,0,1,177.08,256.16Z" style="fill: rgb(224, 224, 224); transform-origin: 205.689px 238.09px;" id="elyxgfi7mrs0q" class="animable"></path><polygon points="360.84 282.25 418.41 282.25 413.87 224.69 360.84 224.69 360.84 282.25" style="fill: rgb(224, 224, 224); transform-origin: 389.625px 253.47px;" id="ele6kogby5us" class="animable"></polygon><polygon points="335.51 266.82 393.07 266.82 398.3 224.69 340.73 224.69 335.51 266.82" style="fill: rgb(240, 240, 240); transform-origin: 366.905px 245.755px;" id="el19wqmgrej99" class="animable"></polygon><polygon points="335.51 266.82 393.07 266.82 375.1 282.3 317.53 282.3 335.51 266.82" style="fill: rgb(240, 240, 240); transform-origin: 355.3px 274.56px;" id="eldlgjgtkrl5u" class="animable"></polygon><path d="M390.53,260.71l3.71-29.91a2.43,2.43,0,0,0-2.47-2.81H346.44a3.28,3.28,0,0,0-3.16,2.81l-3.71,29.91a2.43,2.43,0,0,0,2.46,2.81h45.34A3.28,3.28,0,0,0,390.53,260.71Z" style="fill: rgb(224, 224, 224); transform-origin: 366.905px 245.755px;" id="el7nxq0olnwqw" class="animable"></path></g><g id="freepik--Shadow--inject-3" class="animable" style="transform-origin: 250px 416.24px;"><ellipse id="freepik--path--inject-3" cx="250" cy="416.24" rx="193.89" ry="11.32" style="fill: rgb(245, 245, 245); transform-origin: 250px 416.24px;" class="animable"></ellipse></g><g id="freepik--sample-tube--inject-3" class="animable" style="transform-origin: 129.28px 201.474px;"><g id="el2t0r4b65y6g"><path d="M87,125.32l53.66,205a24.4,24.4,0,0,0,29.7,17.38h0A24.4,24.4,0,0,0,187.74,318L134.08,113Z" style="fill: #92C4FF; opacity: 0.2; transform-origin: 137.759px 230.739px;" class="animable" id="el3m5w1mwqn0t"></path></g><path d="M168.84,341.9a18.36,18.36,0,0,1-22.38-13.09L106,174.11s8.19-5.59,17.74-4.64a40.27,40.27,0,0,0,18.18-2.92l40,153A18.35,18.35,0,0,1,168.84,341.9Z" style="fill: #92C4FF; transform-origin: 144.254px 254.521px;" id="elk63zb4wds6" class="animable"></path><g id="el2ou223zw0fx"><path d="M143.52,262.12a4.29,4.29,0,1,1-4.29-4.29A4.3,4.3,0,0,1,143.52,262.12Z" style="opacity: 0.2; transform-origin: 139.23px 262.12px;" class="animable" id="elvzhjfhau06"></path></g><path d="M141.15,262.12a1.92,1.92,0,1,1-1.92-1.91A1.92,1.92,0,0,1,141.15,262.12Z" style="fill: #92C4FF; transform-origin: 139.23px 262.13px;" id="elvphyuxwqspg" class="animable"></path><g id="elxaw42tlfrf"><path d="M144.64,216.33a2.55,2.55,0,1,1-2.54-2.54A2.55,2.55,0,0,1,144.64,216.33Z" style="opacity: 0.2; transform-origin: 142.09px 216.34px;" class="animable" id="elhlzfthrwqct"></path></g><path d="M143.23,216.33a1.14,1.14,0,1,1-1.13-1.13A1.14,1.14,0,0,1,143.23,216.33Z" style="fill: #92C4FF; transform-origin: 142.09px 216.34px;" id="elcf0n334alx5" class="animable"></path><g id="el81k1kazkbfl"><circle cx="154.75" cy="309.67" r="5.5" style="opacity: 0.2; transform-origin: 154.75px 309.67px;" class="animable" id="el4cgae3es3mw"></circle></g><circle cx="154.75" cy="309.67" r="2.46" style="fill: #92C4FF; transform-origin: 154.75px 309.67px;" id="el1kyd4v4mb3s" class="animable"></circle><g id="elzy2xyg6fvqf"><circle cx="160.15" cy="285.25" r="3.13" style="opacity: 0.2; transform-origin: 160.15px 285.25px;" class="animable" id="elqf431dn7vig"></circle></g><path d="M161.54,285.25a1.4,1.4,0,1,1-1.39-1.4A1.4,1.4,0,0,1,161.54,285.25Z" style="fill: #92C4FF; transform-origin: 160.14px 285.25px;" id="el8t01xesr2h3" class="animable"></path><g id="elzoobhsgjdb"><circle cx="169.49" cy="325.01" r="3.67" style="opacity: 0.2; transform-origin: 169.49px 325.01px;" class="animable" id="elrd6f56st1o"></circle></g><path d="M171.13,325a1.64,1.64,0,1,1-1.64-1.64A1.64,1.64,0,0,1,171.13,325Z" style="fill: #92C4FF; transform-origin: 169.49px 325px;" id="elvdozq7zvjm9" class="animable"></path><g id="el86i6azww3u7"><path d="M145.9,237.87a4.29,4.29,0,1,1-4.29-4.29A4.29,4.29,0,0,1,145.9,237.87Z" style="opacity: 0.2; transform-origin: 141.61px 237.87px;" class="animable" id="el1kwta10cnl3"></path></g><path d="M144.64,237.87a3,3,0,1,1-3-3A3,3,0,0,1,144.64,237.87Z" style="fill: #92C4FF; transform-origin: 141.64px 237.87px;" id="elngb4lq7y4yo" class="animable"></path><g id="el4w4z0iz13zm"><path d="M155.64,255.11a3,3,0,1,1-3-3A3,3,0,0,1,155.64,255.11Z" style="opacity: 0.2; transform-origin: 152.64px 255.11px;" class="animable" id="elaalv87amxk4"></path></g><path d="M154.75,255.11A2.15,2.15,0,1,1,152.6,253,2.15,2.15,0,0,1,154.75,255.11Z" style="fill: #92C4FF; transform-origin: 152.6px 255.15px;" id="elwn71au70uup" class="animable"></path><g id="elz38kyedf0n"><rect x="114.71" y="138.76" width="18.67" height="64" style="fill: rgb(255, 255, 255); transform-origin: 124.045px 170.76px; transform: rotate(-14.67deg);" class="animable" id="elbdtbg9zzock"></rect></g><g id="elc60a01eg1et"><rect x="131.53" y="79.01" width="1" height="7.58" style="fill: #92C4FF; transform-origin: 132.03px 82.8px; transform: rotate(-14.67deg);" class="animable" id="el9i3uqknkswu"></rect></g><path d="M129.36,74.54,125.3,59.05a4.75,4.75,0,0,0-4.59-3.55,4.52,4.52,0,0,0-1.21.16l-9.13,2.39-.25-1,9.13-2.39a5.57,5.57,0,0,1,1.46-.19,5.75,5.75,0,0,1,5.56,4.3l4,15.49Z" style="fill: #92C4FF; transform-origin: 120.195px 64.505px;" id="elc6udgr5apkf" class="animable"></path><g id="elsdym6ro056m"><path d="M78.28,63.46h49.5A2.25,2.25,0,0,1,130,65.71v51.75a0,0,0,0,1,0,0H76a0,0,0,0,1,0,0V65.71A2.25,2.25,0,0,1,78.28,63.46Z" style="fill: #92C4FF; transform-origin: 103px 90.4599px; transform: rotate(-14.67deg);" class="animable" id="el9cxzduesr0w"></path></g><g id="el5c7pb67jcm"><rect x="101.7" y="63.46" width="2.67" height="54" style="opacity: 0.2; transform-origin: 103.035px 90.46px; transform: rotate(-14.67deg);" class="animable" id="elv47mm8j2yb"></rect></g><g id="elybqqxtnf7q"><rect x="111.37" y="60.93" width="2.67" height="54" style="opacity: 0.2; transform-origin: 112.705px 87.93px; transform: rotate(-14.4524deg);" class="animable" id="ell885hydc6tt"></rect></g><g id="el5l97dg1avuh"><rect x="121.04" y="58.4" width="2.67" height="54" style="opacity: 0.2; transform-origin: 122.375px 85.4px; transform: rotate(-14.67deg);" class="animable" id="el0687yna8u8kf"></rect></g><g id="eliqumbdcj0ve"><rect x="92.02" y="65.99" width="2.67" height="54" style="opacity: 0.2; transform-origin: 93.355px 92.99px; transform: rotate(-14.67deg);" class="animable" id="elgxpk0mmxwsj"></rect></g><g id="elf7b86kr4ji"><rect x="82.35" y="68.53" width="2.67" height="54" style="opacity: 0.2; transform-origin: 83.685px 95.53px; transform: rotate(-14.67deg);" class="animable" id="ellvfnlcq9esh"></rect></g><g id="elcr5s3wqf1m7"><rect x="80.36" y="112.81" width="60.67" height="13.83" rx="3.33" style="fill: #92C4FF; transform-origin: 110.695px 119.725px; transform: rotate(-14.67deg);" class="animable" id="elajzyzjy62fw"></rect></g></g><g id="freepik--Test--inject-3" class="animable" style="transform-origin: 354.335px 188.228px;"><g id="elos657sfadsi"><rect x="437.76" y="186.3" width="6.78" height="1" style="fill: #92C4FF; transform-origin: 441.15px 186.8px; transform: rotate(-85.38deg);" class="animable" id="elbxll9eywwkq"></rect></g><g id="el7pdg7t7m9e9"><rect x="432.76" y="165.49" width="20.13" height="1" style="fill: #92C4FF; transform-origin: 442.825px 165.99px; transform: rotate(-85.38deg);" class="animable" id="elzp3juay00w"></rect></g><polygon points="280.15 73.52 262.46 292.31 393.94 302.93 431.32 271.15 446.21 86.94 280.15 73.52" style="fill: rgb(255, 255, 255); transform-origin: 354.335px 188.225px;" id="elargpq4k4s5r" class="animable"></polygon><path d="M393.94,303.85h-.08L262.39,293.22a.91.91,0,0,1-.84-1L279.23,73.45a.92.92,0,0,1,1-.84L446.28,86a.91.91,0,0,1,.84,1l-14.89,184.2a.88.88,0,0,1-.32.62l-37.38,31.79A.9.9,0,0,1,393.94,303.85ZM263.45,291.47,393.63,302l36.81-31.3L445.22,87.78,281,74.51Z" style="fill: #92C4FF; transform-origin: 354.335px 188.228px;" id="el9r1g6aj5sim" class="animable"></path><g id="elfi06qe8shqm"><polygon points="390.22 270.42 393.94 302.93 431.32 271.15 390.22 270.42" style="fill: #92C4FF; opacity: 0.2; transform-origin: 410.77px 286.675px;" class="animable" id="eltbyp86qo5jk"></polygon></g><polygon points="396.73 268.35 393.94 302.93 431.32 271.15 396.73 268.35" style="fill: rgb(255, 255, 255); transform-origin: 412.63px 285.64px;" id="el8vnngtygk1l" class="animable"></polygon><path d="M393.94,303.85a.9.9,0,0,1-.42-.1.92.92,0,0,1-.5-.89l2.8-34.58a.9.9,0,0,1,.32-.63.89.89,0,0,1,.67-.21l34.58,2.79a.92.92,0,0,1,.8.63.93.93,0,0,1-.28,1l-37.38,31.79A.87.87,0,0,1,393.94,303.85Zm3.63-34.51L395,300.8l34-28.92Z" style="fill: #92C4FF; transform-origin: 412.627px 285.643px;" id="ely8cdofxirt" class="animable"></path><path d="M360.94,111.48h-.29a3.21,3.21,0,0,1-2.94-3.45l.68-8.39a3.21,3.21,0,0,1,6.4.51l-.68,8.39A3.21,3.21,0,0,1,360.94,111.48Z" style="fill: #92C4FF; transform-origin: 361.25px 104.086px;" id="elarmnpjloqzs" class="animable"></path><path d="M365.81,103.43h-.28l-8.39-.68a3.21,3.21,0,1,1,.51-6.39L366,97a3.21,3.21,0,0,1-.23,6.4Z" style="fill: #92C4FF; transform-origin: 361.439px 99.8805px;" id="elg1bq1y9mxz" class="animable"></path><path d="M353.66,201.48h-.28a3.2,3.2,0,0,1-2.94-3.45l.68-8.39a3.21,3.21,0,1,1,6.39.51l-.68,8.39A3.2,3.2,0,0,1,353.66,201.48Z" style="fill: #92C4FF; transform-origin: 353.984px 193.995px;" id="elr1bzqx4ozdf" class="animable"></path><path d="M357.86,201.82h-.29l-8.39-.68a3.21,3.21,0,1,1,.52-6.39l8.39.68a3.21,3.21,0,0,1-.23,6.4Z" style="fill: #92C4FF; transform-origin: 353.511px 198.276px;" id="elt1ty7wvxgb" class="animable"></path><path d="M406.83,156.27h-.28l-8.39-.68a3.21,3.21,0,1,1,.52-6.4l8.39.68a3.21,3.21,0,0,1-.24,6.41Z" style="fill: #92C4FF; transform-origin: 402.617px 152.73px;" id="el1jnqk8jq251" class="animable"></path><path d="M406.5,160.46h-.29a3.21,3.21,0,0,1-2.94-3.46l.68-8.39a3.21,3.21,0,0,1,6.39.52l-.67,8.39A3.21,3.21,0,0,1,406.5,160.46Z" style="fill: #92C4FF; transform-origin: 406.8px 153.144px;" id="elu1i7ojn1woj" class="animable"></path><path d="M316.83,149h-.28l-8.39-.68a3.21,3.21,0,1,1,.52-6.39l8.39.68a3.21,3.21,0,0,1-.24,6.4Z" style="fill: #92C4FF; transform-origin: 312.489px 145.456px;" id="elouvok46uuw" class="animable"></path><path d="M308.11,152.51h-.29a3.21,3.21,0,0,1-2.94-3.46l.68-8.39a3.21,3.21,0,1,1,6.39.52l-.67,8.39A3.21,3.21,0,0,1,308.11,152.51Z" style="fill: #92C4FF; transform-origin: 308.424px 145.026px;" id="ellnhezo9i10n" class="animable"></path><path d="M331.12,121.1a3.16,3.16,0,0,1-2.47-1.13l-5.46-6.41a3.21,3.21,0,0,1,4.89-4.16l5.46,6.42a3.21,3.21,0,0,1-.37,4.52A3.16,3.16,0,0,1,331.12,121.1Z" style="fill: #92C4FF; transform-origin: 328.364px 114.687px;" id="elvwyz8rt3o9l" class="animable"></path><path d="M322.46,117.42a3.21,3.21,0,0,1-2.11-5.65l6.42-5.46a3.21,3.21,0,1,1,4.15,4.89l-6.41,5.45A3.23,3.23,0,0,1,322.46,117.42Z" style="fill: #92C4FF; transform-origin: 325.695px 111.436px;" id="el4bonuk2grqg" class="animable"></path><path d="M389.61,189.89a3.24,3.24,0,0,1-2.47-1.13l-5.45-6.41a3.21,3.21,0,1,1,4.89-4.16L392,184.6a3.22,3.22,0,0,1-2.42,5.29Z" style="fill: #92C4FF; transform-origin: 386.839px 183.475px;" id="elbl7kl1dw8an" class="animable"></path><path d="M386.41,192.61a3.16,3.16,0,0,1-2.47-1.13,3.2,3.2,0,0,1,.36-4.52l6.41-5.45a3.21,3.21,0,1,1,4.16,4.89l-6.41,5.45A3.16,3.16,0,0,1,386.41,192.61Z" style="fill: #92C4FF; transform-origin: 389.586px 186.678px;" id="elz1yaz30a6aa" class="animable"></path><path d="M388.82,125.77a3.21,3.21,0,0,1-2.1-5.65l6.41-5.46a3.21,3.21,0,0,1,4.16,4.89L390.88,125A3.23,3.23,0,0,1,388.82,125.77Z" style="fill: #92C4FF; transform-origin: 392.008px 119.832px;" id="el2j7wa688zxo" class="animable"></path><path d="M398,123.52a3.18,3.18,0,0,1-2.46-1.13L390,116a3.21,3.21,0,0,1,4.89-4.16l5.45,6.41a3.2,3.2,0,0,1-2.42,5.29Z" style="fill: #92C4FF; transform-origin: 395.177px 117.127px;" id="elrnfbh8zuihp" class="animable"></path><path d="M320,184.26a3.16,3.16,0,0,1-2.47-1.13,3.2,3.2,0,0,1,.37-4.52l6.41-5.45a3.21,3.21,0,1,1,4.15,4.89l-6.41,5.45A3.12,3.12,0,0,1,320,184.26Z" style="fill: #92C4FF; transform-origin: 323.235px 178.281px;" id="elwjj0w8ctspb" class="animable"></path><path d="M322.77,187.47a3.2,3.2,0,0,1-2.47-1.13l-5.46-6.41a3.21,3.21,0,0,1,4.89-4.16l5.45,6.41a3.21,3.21,0,0,1-.36,4.53A3.27,3.27,0,0,1,322.77,187.47Z" style="fill: #92C4FF; transform-origin: 320.012px 181.055px;" id="elteg15divgnc" class="animable"></path><g id="el84ioe8crg5n"><circle cx="357.61" cy="149.08" r="40.94" style="fill: rgb(255, 255, 255); transform-origin: 357.61px 149.08px; transform: rotate(-40.38deg);" class="animable" id="el7u5inhocyt7"></circle></g><path d="M358,191.85c-1.27,0-2.54,0-3.82-.14a42.77,42.77,0,1,1,46.07-39.18l-1.82-.15,1.82.15A42.77,42.77,0,0,1,358,191.85ZM357.31,110a39,39,0,1,0,3.45.12Q359,110,357.31,110Z" style="fill: #92C4FF; transform-origin: 357.619px 149.079px;" id="ela5wls35yj1s" class="animable"></path><g id="elqqh78rbskbb"><path d="M372.34,154.64c-.4,0-.8,0-1.19,0A13.33,13.33,0,1,1,373.29,128a13.33,13.33,0,0,1-1,26.62Zm-.19-21.71a8.38,8.38,0,1,0,8.42,9h0a8.37,8.37,0,0,0-7.68-9C372.65,132.94,372.4,132.93,372.15,132.93Z" style="fill: #92C4FF; opacity: 0.2; transform-origin: 372.223px 141.299px;" class="animable" id="el4k7rztjd1bd"></path></g><g id="eleas6zlg823"><path d="M342.15,145.85a7.46,7.46,0,1,1-6.84-8A7.46,7.46,0,0,1,342.15,145.85Z" style="fill: #92C4FF; opacity: 0.4; transform-origin: 334.711px 145.286px;" class="animable" id="elp43do2voqwo"></path></g><g id="el6oiydiaty5k"><path d="M362.29,169.81a5.27,5.27,0,1,1-4.83-5.68A5.28,5.28,0,0,1,362.29,169.81Z" style="fill: #92C4FF; opacity: 0.2; transform-origin: 357.037px 169.383px;" class="animable" id="elvcpdip518f"></path></g><g id="elfzbkt6cf5a"><path d="M314.31,239h-.16l-22.64-1.83a1.83,1.83,0,0,1-1.68-2l1.83-22.64a1.84,1.84,0,0,1,2-1.68l22.63,1.83a1.84,1.84,0,0,1,1.68,2l-1.83,22.63a1.82,1.82,0,0,1-.64,1.25A1.86,1.86,0,0,1,314.31,239Zm-20.68-5.35,19,1.54,1.53-19-19-1.54Z" style="fill: rgb(38, 50, 56); opacity: 0.2; transform-origin: 303.9px 224.921px;" class="animable" id="elryngdubmqo"></path></g><path d="M400.75,230h-.16l-73.94-6a1.83,1.83,0,1,1,.3-3.65l73.93,6a1.83,1.83,0,0,1-.13,3.66Z" style="fill: rgb(224, 224, 224); transform-origin: 363.807px 225.177px;" id="elemiduvvtfmq" class="animable"></path><path d="M349.77,235.1h-.16l-23.7-1.91a1.84,1.84,0,1,1,.3-3.66l23.7,1.92a1.83,1.83,0,0,1-.14,3.66Z" style="fill: rgb(224, 224, 224); transform-origin: 337.883px 232.311px;" id="el2zx1cu1blu1" class="animable"></path><path d="M384.66,237.92h-.16L364,236.26a1.83,1.83,0,1,1,.3-3.65l20.45,1.65a1.83,1.83,0,0,1-.13,3.66Z" style="fill: rgb(224, 224, 224); transform-origin: 374.415px 235.262px;" id="elsqbdfdszyr" class="animable"></path><g id="eljjmdda5xys"><path d="M311.06,279.24h-.16l-22.64-1.83a1.83,1.83,0,0,1-1.68-2l1.83-22.63a1.84,1.84,0,0,1,2-1.68L313,253a1.83,1.83,0,0,1,1.68,2l-1.83,22.64a1.86,1.86,0,0,1-.64,1.25A1.8,1.8,0,0,1,311.06,279.24Zm-20.68-5.34,19,1.54,1.53-19-19-1.54Z" style="fill: rgb(38, 50, 56); opacity: 0.2; transform-origin: 300.63px 265.167px;" class="animable" id="eldvx5fzssksq"></path></g><path d="M384.23,269.17h-.16l-60.67-4.91a1.83,1.83,0,1,1,.3-3.65l60.67,4.9a1.83,1.83,0,0,1-.14,3.66Z" style="fill: rgb(224, 224, 224); transform-origin: 353.925px 264.888px;" id="el67np7lihys8" class="animable"></path><path d="M359.92,276.4h-.16l-37.1-3a1.84,1.84,0,1,1,.3-3.66l37.09,3a1.83,1.83,0,0,1-.13,3.66Z" style="fill: rgb(224, 224, 224); transform-origin: 341.334px 273.061px;" id="elew8cscp6b57" class="animable"></path></g><g id="freepik--Character--inject-3" class="animable" style="transform-origin: 208.2px 267.191px;"><g id="elt8r9jx36m18"><ellipse cx="130.42" cy="206.48" rx="43.77" ry="51.79" style="fill: #92C4FF; opacity: 0.3; transform-origin: 130.42px 206.48px; transform: rotate(-71.25deg);" class="animable" id="elvkaglnf2vip"></ellipse></g><g id="el3mq2fl4vb8r"><rect x="115.31" y="156.32" width="15.64" height="86.28" style="fill: rgb(255, 255, 255); opacity: 0.3; transform-origin: 123.13px 199.46px; transform: rotate(45.99deg);" class="animable" id="el6zkj9n52flj"></rect></g><g id="elvsi3zrhkh"><rect x="131.66" y="168.79" width="12.21" height="88.28" style="fill: rgb(255, 255, 255); opacity: 0.3; transform-origin: 137.765px 212.93px; transform: rotate(45.99deg);" class="animable" id="elqv7d9z5p3vh"></rect></g><path d="M135.65,254.68a63.85,63.85,0,0,1-20.43-3.43c-13.88-4.72-25.39-13.75-32.42-25.43-7.15-11.87-8.83-25-4.73-37.11s13.45-21.5,26.35-26.57c12.69-5,27.32-5.14,41.2-.42s25.4,13.74,32.43,25.42c7.14,11.87,8.82,25.05,4.73,37.12s-13.46,21.5-26.35,26.56A56.7,56.7,0,0,1,135.65,254.68Zm-10.46-89.39A49.84,49.84,0,0,0,107,168.65C96,173,88.12,180.88,84.7,191s-2,21.18,4.09,31.25c6.18,10.27,16.37,18.23,28.68,22.41s25.25,4.07,36.4-.31c10.94-4.3,18.86-12.22,22.28-22.3s2-21.18-4.1-31.26c-6.18-10.27-16.36-18.22-28.68-22.4h0A56.64,56.64,0,0,0,125.19,165.29Z" style="fill: rgb(38, 50, 56); transform-origin: 130.422px 206.481px;" id="elezool58ywph" class="animable"></path><path d="M183.21,218.41a199.89,199.89,0,0,1,20.3,3.41c6.66,1.42,13.26,3.06,19.79,4.86s13,3.77,19.46,5.87c3.19,1.13,6.52,1.88,9.48,3.67a21.58,21.58,0,0,1,4.25,3.29,19.34,19.34,0,0,1,1.93,2.22,16.24,16.24,0,0,1,1.72,2.81,8.08,8.08,0,0,1-3.64,10.74,16.58,16.58,0,0,1-3.09,1.18,19.47,19.47,0,0,1-2.87.58,21.08,21.08,0,0,1-5.38,0c-3.44-.38-6.53-1.81-9.75-2.85-6.39-2.25-12.73-4.63-19-7.2s-12.51-5.26-18.67-8.19a200.72,200.72,0,0,1-18.17-9.66,5.82,5.82,0,0,1,3.65-10.75Z" style="fill: rgb(38, 50, 56); transform-origin: 218.87px 237.785px;" id="elqegud67265r" class="animable"></path><g id="eluok4rveia6e"><path d="M244,147.57c.72,4.09-.95,7.14-3.73,6.81s-5.61-3.9-6.32-8,1-7.14,3.73-6.81S243.26,143.48,244,147.57Z" style="fill: #92C4FF; opacity: 0.1; transform-origin: 238.978px 146.975px;" class="animable" id="elbznaq0qfpww"></path></g><path d="M259,412c8.27-.64,12.47-5.94,11.82-11.9-.36-3.29,10.17-4.36,10.17-4.36-1.55,10.39.72,12.06,1.11,14.73s.17,5.57-2,5.62c-2.62.07-3.8-.43-7.06-.3-3.81.14-6.38.29-13.14.3C257.21,416.11,255.35,412.3,259,412Z" style="fill: rgb(38, 50, 56); transform-origin: 269.611px 405.918px;" id="elc1noqbc4anr" class="animable"></path><path d="M333.22,406c4.89-8.37.87-13.87-2.66-18.42-2.09-2.69,7.94-6.1,7.94-6.1,2.5,6.29,5,6.21,7.5,7.6s3.93,3.7,2.56,5.39c-1.65,2-3.11,1.85-5.05,4.43-2.27,3-4.69,6.91-7.87,10.15C333.75,411,331.38,409.12,333.22,406Z" style="fill: rgb(38, 50, 56); transform-origin: 339.682px 395.662px;" id="el47109xzbn7f" class="animable"></path><path d="M237.14,236.73s1.39,42,11.65,77c4.47,30.26,21.92,87.44,21.92,87.44a22.82,22.82,0,0,0,11-.1s5.59-44.14-6.15-92c7.63-51.05,2.44-77.11,2.44-77.11Z" style="fill: #92C4FF; transform-origin: 260.09px 316.877px;" id="elrjpjpw4c9yh" class="animable"></path><path d="M253.27,234.8s17.53,57.77,31,84.49c14.16,28.06,44.67,68,46.08,69.77,3.88-1.85,7.27-3.95,9.3-6.78,0,0-11.66-44.3-28.89-74.48-13.55-66.5-22.58-77.16-22.58-77.16Z" style="fill: #92C4FF; transform-origin: 296.46px 309.85px;" id="eliyb7812uge9" class="animable"></path><path d="M263.5,151.23c-.74,5.93-1,15.48,1.85,20.21,0,0-7.56,1.29-17.39,11.26-6-6.91-1.16-9-1.16-9,4.39-1.6,4.45-7.17,3.93-11.46Z" style="fill: rgb(255, 195, 189); transform-origin: 255.153px 166.965px;" id="elbxqzsho0kwl" class="animable"></path><path d="M231.75,190.32c-1.13-6.91,2.95-12.54,11.52-15.5,7.9-2.72,19.24-4.71,27.07-3.59s10.7,5,10.18,10.9c-2.24,25.6,7.55,40.68,7.68,48.51-18.42,4.7-46.53,8.65-51.06,6.09-3.31-3.49-2.67-25.26-1.64-28.58C227.33,203.86,232.38,194.17,231.75,190.32Z" style="fill: #92C4FF; transform-origin: 259.489px 204.224px;" id="el6yk00s9uqo3" class="animable"></path><path d="M239.53,147.4c.12.77-.19,1.47-.7,1.55s-1-.48-1.15-1.26.19-1.48.7-1.56S239.4,146.62,239.53,147.4Z" style="fill: rgb(38, 50, 56); transform-origin: 238.6px 147.54px;" id="elokw91b01kvf" class="animable"></path><path d="M238.61,146.14l-2-.24S237.85,147.21,238.61,146.14Z" style="fill: rgb(38, 50, 56); transform-origin: 237.61px 146.23px;" id="el4uuyjn6bpyw" class="animable"></path><path d="M239.5,149a21.28,21.28,0,0,1-2,5.41,3.36,3.36,0,0,0,2.85.08Z" style="fill: rgb(237, 132, 126); transform-origin: 238.925px 151.884px;" id="ell8wwx24altk" class="animable"></path><path d="M237.05,143.27a.46.46,0,0,1,.13-.84,4.59,4.59,0,0,1,4.14.85.46.46,0,0,1,0,.65.45.45,0,0,1-.65,0,3.69,3.69,0,0,0-3.28-.64A.45.45,0,0,1,237.05,143.27Z" style="fill: rgb(38, 50, 56); transform-origin: 239.142px 143.163px;" id="elp99qb6z1yve" class="animable"></path><path d="M264.84,142.06c.94,9.65,1.54,13.72-2.42,19.38-5.95,8.51-17.79,7.5-21.54-1.69-3.37-8.27-4.34-22.66,4.23-27.92S263.9,132.41,264.84,142.06Z" style="fill: rgb(255, 195, 189); transform-origin: 251.983px 148.561px;" id="el38691xn1xma" class="animable"></path><path d="M245,148.11c-3.51.51-5-4.85-3.8-7.21-4.14-.13-4.86-3.87-3.52-6.62s4.69-8.85,16.75-7,16,12.34,14.95,16.75,1.11,16.81-10.16,18.85S241.09,153.75,245,148.11Z" style="fill: rgb(38, 50, 56); transform-origin: 253.305px 145.031px;" id="elpwivx56ikhg" class="animable"></path><path d="M285.55,172c-6.16-6-29.47-3-46.43,2.4s-12.73,22.42-11.26,34.28,10.34,95.56,20.52,126c24.72.31,62.47-8,72.95-13.41-4.11-10.9-26.16-95.69-29.78-118C289.79,192.39,292.05,178.3,285.55,172Z" style="fill: #92C4FF; transform-origin: 273.816px 251.692px;" id="elbw5wusl5v9l" class="animable"></path><g id="elpeuv65ewp2e"><path d="M285.55,172c-6.16-6-29.47-3-46.43,2.4s-12.73,22.42-11.26,34.28,10.34,95.56,20.52,126c24.72.31,62.47-8,72.95-13.41-4.11-10.9-26.16-95.69-29.78-118C289.79,192.39,292.05,178.3,285.55,172Z" style="fill: rgb(255, 255, 255); opacity: 0.6; transform-origin: 273.816px 251.692px;" class="animable" id="el9b7miq90t3r"></path></g><g id="elcl8atkudthp"><path d="M229.34,221.27c3.4-4.4,6.33-8.66,7.25-11.29,3.28-9.41-1.15,16.28-5.05,29.64C230.67,232.64,229.93,226.38,229.34,221.27Z" style="fill: #92C4FF; opacity: 0.5; transform-origin: 233.537px 223.787px;" class="animable" id="elgnq5pocs1nv"></path></g><path d="M201.19,226.85l3.56,3.6c1.91,5.26-5.57,8.16-5.57,8.16l-3.36,2.84a2.71,2.71,0,0,1-3.71,0l-2.5-2.5a3.23,3.23,0,0,1,0-4.4l2.6-2.88a7.81,7.81,0,0,1,2.63-1.94Z" style="fill: #92C4FF; transform-origin: 196.904px 234.517px;" id="el1h1b3smqzpmh" class="animable"></path><path d="M202.63,226.47c-4-1.75-7.66,1.34-11,2.93-.57.27-.76,1.91.24,2.09a5,5,0,0,0,3.81-.62c.84,1.08,4.33,2.91,7.81-.25A5.58,5.58,0,0,0,202.63,226.47Z" style="fill: #92C4FF; transform-origin: 197.373px 229.168px;" id="el93s1c6vc55p" class="animable"></path><path d="M249.94,190.06l-.49,2.32-.53,2.19c-.36,1.45-.74,2.89-1.12,4.32-.8,2.87-1.67,5.73-2.64,8.57s-2,5.67-3.19,8.5c-.57,1.42-1.21,2.84-1.85,4.25l-1,2.12-.61,1.23c-.27.55-.57,1.07-.88,1.59a23.58,23.58,0,0,1-10.78,9.41l-.42.18-.31.12-.6.22-1.21.43-2.36.74-2.3.64-2.27.55c-3,.68-6,1.2-8.94,1.61-1.48.2-2.95.37-4.43.53s-2.92.28-4.52.37L197,225.36l3.8-1.2c1.29-.41,2.57-.85,3.84-1.29,2.54-.86,5-1.76,7.43-2.72l1.76-.73,1.7-.74,1.6-.78.73-.4.38-.19.17-.09.06-.05a4.25,4.25,0,0,0,1.37-2c0-.1.06-.19.08-.29l0-.07.07-.2.15-.44.62-1.78c.39-1.22.8-2.41,1.17-3.66.75-2.47,1.44-5,2.1-7.58s1.28-5.15,1.86-7.76c.3-1.3.59-2.6.86-3.9l.77-3.77Z" style="fill: #92C4FF; transform-origin: 223.47px 212.835px;" id="elugcbo31efmr" class="animable"></path><g id="elh9enpecsci7"><g style="opacity: 0.6; transform-origin: 223.47px 212.835px;" class="animable" id="elvnmadow02yr"><path d="M249.94,190.06l-.49,2.32-.53,2.19c-.36,1.45-.74,2.89-1.12,4.32-.8,2.87-1.67,5.73-2.64,8.57s-2,5.67-3.19,8.5c-.57,1.42-1.21,2.84-1.85,4.25l-1,2.12-.61,1.23c-.27.55-.57,1.07-.88,1.59a23.58,23.58,0,0,1-10.78,9.41l-.42.18-.31.12-.6.22-1.21.43-2.36.74-2.3.64-2.27.55c-3,.68-6,1.2-8.94,1.61-1.48.2-2.95.37-4.43.53s-2.92.28-4.52.37L197,225.36l3.8-1.2c1.29-.41,2.57-.85,3.84-1.29,2.54-.86,5-1.76,7.43-2.72l1.76-.73,1.7-.74,1.6-.78.73-.4.38-.19.17-.09.06-.05a4.25,4.25,0,0,0,1.37-2c0-.1.06-.19.08-.29l0-.07.07-.2.15-.44.62-1.78c.39-1.22.8-2.41,1.17-3.66.75-2.47,1.44-5,2.1-7.58s1.28-5.15,1.86-7.76c.3-1.3.59-2.6.86-3.9l.77-3.77Z" style="fill: rgb(255, 255, 255); transform-origin: 223.47px 212.835px;" id="el16f1qipq4qn" class="animable"></path></g></g><g id="elyww2ca2ebug"><path d="M266.17,230.73s16.46-2.31,21.3-5.48C281.61,230.38,273.68,231.47,266.17,230.73Z" style="fill: #92C4FF; opacity: 0.5; transform-origin: 276.82px 228.094px;" class="animable" id="elsuocqej1mzc"></path></g><g id="ela1rf525cb9u"><path d="M268,232.58s12.09.09,15.9-1.71C279.15,234,273.32,233.94,268,232.58Z" style="fill: #92C4FF; opacity: 0.5; transform-origin: 275.95px 232.169px;" class="animable" id="el92dwrtnnna"></path></g><path d="M238.61,150.41c-1.17,3.14-2.46,6.58-1.59,10.39s4.74,5.81,10.72,5.76c-.64-2.49-3.35-4-5.5-7.83s0-12.51,0-12.51l-.75-.65a43.08,43.08,0,0,0-2.11,6.73C238.38,150.8,238.61,150.41,238.61,150.41Z" style="fill: #92C4FF; transform-origin: 242.237px 156.065px;" id="elpbwhrgaao5" class="animable"></path><g id="el03g7u18h6kwk"><path d="M238.61,150.41c-1.17,3.14-2.46,6.58-1.59,10.39s4.74,5.81,10.72,5.76c-.64-2.49-3.35-4-5.5-7.83s0-12.51,0-12.51l-.75-.65a43.08,43.08,0,0,0-2.11,6.73C238.38,150.8,238.61,150.41,238.61,150.41Z" style="fill: rgb(255, 255, 255); opacity: 0.3; transform-origin: 242.237px 156.065px;" class="animable" id="el922hl1y560j"></path></g><path d="M247.66,150.67a6.3,6.3,0,0,1-2.91,4.52c-2,1.07-3.61-1.36-3.6-4.14,0-2.51,1-6.08,3.28-6S248.12,148.13,247.66,150.67Z" style="fill: rgb(255, 195, 189); transform-origin: 244.448px 150.248px;" id="eldujki48kkq6" class="animable"></path><path d="M237.17,135.59c.69,4.52,5.76,17.37,13.48,22.48,7,4.66,14.29,5.22,16.65.17,0,0,8.64,2.93,10.7-13.66,1.77-14.18-8.51-24.25-19.67-26C248.18,117,228.23,121.65,237.17,135.59Z" style="fill: #92C4FF; transform-origin: 256.562px 140.043px;" id="elpkfme4kiphh" class="animable"></path><g id="eli0v54s6ycuo"><path d="M238.06,136s7.83,14.61,28.38,21.56C254.44,156.5,244.78,147.28,238.06,136Z" style="opacity: 0.2; transform-origin: 252.25px 146.78px;" class="animable" id="elq8jl0g6k4yk"></path></g></g><defs>     <filter id="active" height="200%">         <feMorphology in="SourceAlpha" result="DILATED" operator="dilate" radius="2"></feMorphology>                <feFlood flood-color="#32DFEC" flood-opacity="1" result="PINK"></feFlood>        <feComposite in="PINK" in2="DILATED" operator="in" result="OUTLINE"></feComposite>        <feMerge>            <feMergeNode in="OUTLINE"></feMergeNode>            <feMergeNode in="SourceGraphic"></feMergeNode>        </feMerge>    </filter>    <filter id="hover" height="200%">        <feMorphology in="SourceAlpha" result="DILATED" operator="dilate" radius="2"></feMorphology>                <feFlood flood-color="#ff0000" flood-opacity="0.5" result="PINK"></feFlood>        <feComposite in="PINK" in2="DILATED" operator="in" result="OUTLINE"></feComposite>        <feMerge>            <feMergeNode in="OUTLINE"></feMergeNode>            <feMergeNode in="SourceGraphic"></feMergeNode>        </feMerge>            <feColorMatrix type="matrix" values="0   0   0   0   0                0   1   0   0   0                0   0   0   0   0                0   0   0   1   0 "></feColorMatrix>    </filter></defs></svg>